<?xml version="1.0" encoding="UTF-8" standalone="no"?>
<!DOCTYPE svg PUBLIC "-//W3C//DTD SVG 1.1//EN" "http://www.w3.org/Graphics/SVG/1.1/DTD/svg11.dtd">
<svg width="100%" height="100%" viewBox="0 0 446 446" version="1.1" xmlns="http://www.w3.org/2000/svg" xmlns:xlink="http://www.w3.org/1999/xlink" xml:space="preserve" xmlns:serif="http://www.serif.com/" style="fill-rule:evenodd;clip-rule:evenodd;stroke-linejoin:round;stroke-miterlimit:2;">
    <g transform="matrix(1,0,0,1,-1172.67,-135.257)">
        <g>
            <g transform="matrix(0.319045,0,0,0.319045,673.044,220.157)">
                <g transform="matrix(1,0,0,1,1,-535.381)">
                    <path d="M1826.26,818.396C1908.38,818.396 1975.05,885.065 1975.05,967.182C1975.05,1049.3 1908.38,1115.97 1826.26,1115.97C1744.15,1115.97 1677.48,1049.3 1677.48,967.182C1677.48,885.065 1744.15,818.396 1826.26,818.396ZM1826.26,880.914C1873.88,880.914 1912.53,919.569 1912.53,967.182C1912.53,1014.79 1873.88,1053.45 1826.26,1053.45C1778.65,1053.45 1740,1014.79 1740,967.182C1740,919.569 1778.65,880.914 1826.26,880.914Z" style="fill:rgb(239,239,239);"/>
                </g>
                <g transform="matrix(1,0,0,1,874.265,-535.381)">
                    <path d="M1826.26,818.396C1908.38,818.396 1975.05,885.065 1975.05,967.182C1975.05,1049.3 1908.38,1115.97 1826.26,1115.97C1744.15,1115.97 1677.48,1049.3 1677.48,967.182C1677.48,885.065 1744.15,818.396 1826.26,818.396ZM1826.26,880.914C1873.88,880.914 1912.53,919.569 1912.53,967.182C1912.53,1014.79 1873.88,1053.45 1826.26,1053.45C1778.65,1053.45 1740,1014.79 1740,967.182C1740,919.569 1778.65,880.914 1826.26,880.914Z" style="fill:rgb(239,239,239);"/>
                </g>
                <g transform="matrix(1,0,0,1,-25.2295,-551.487)">
                    <circle cx="2106.8" cy="983.074" r="70.375" style="fill:rgb(239,239,239);"/>
                </g>
                <g transform="matrix(1,0,0,1,150.671,-551.273)">
                    <circle cx="2106.8" cy="983.074" r="70.375" style="fill:rgb(239,239,239);"/>
                </g>
                <g transform="matrix(1,0,0,1,329.576,-551.273)">
                    <circle cx="2106.8" cy="983.074" r="70.375" style="fill:rgb(239,239,239);"/>
                </g>
            </g>
            <g transform="matrix(1.02212,0,0,1.02212,-300.74,-953.154)">
                <rect x="1441.53" y="1064.86" width="435.694" height="435.694" style="fill:none;"/>
            </g>
        </g>
    </g>
</svg>
