<?xml version="1.0" encoding="UTF-8" standalone="no"?>
<!DOCTYPE svg PUBLIC "-//W3C//DTD SVG 1.1//EN" "http://www.w3.org/Graphics/SVG/1.1/DTD/svg11.dtd">
<svg width="100%" height="100%" viewBox="0 0 446 446" version="1.1" xmlns="http://www.w3.org/2000/svg" xmlns:xlink="http://www.w3.org/1999/xlink" xml:space="preserve" xmlns:serif="http://www.serif.com/" style="fill-rule:evenodd;clip-rule:evenodd;stroke-linejoin:round;stroke-miterlimit:2;">
    <g transform="matrix(1,0,0,1,-1154.03,-734.516)">
        <path d="M1599.36,764.041L1569.83,734.516L1154.03,1149L1184.88,1179.85L1154.03,1179.85L1154.03,734.516L1599.36,734.516L1599.36,764.041ZM1599.36,1179.85L1184.88,1179.85L1286.87,1077.58C1303.89,1089.86 1325.73,1099.05 1353.78,1102.3L1353.78,1137.49L1399.61,1137.49L1399.61,1102.3C1523.44,1087.95 1526.39,957.706 1526.39,957.706L1480.57,956.656C1480.57,956.656 1478.21,1057.75 1376.69,1057.75C1352.99,1057.75 1334.69,1052.24 1320.57,1043.79L1338.04,1026.27C1349.47,1032.69 1362.66,1036.35 1376.69,1036.35C1420.38,1036.35 1455.86,1000.87 1455.86,957.181L1455.86,908.135L1599.36,764.251L1599.36,1179.85ZM1237.01,1007.59C1227.51,980.236 1227,957.706 1227,957.706L1272.82,956.656C1272.82,956.656 1272.94,962.045 1274.39,970.338L1237.01,1007.59ZM1297.53,947.275L1297.53,867.024C1297.53,823.331 1333,787.858 1376.69,787.858C1398.92,787.858 1419.03,797.041 1433.41,811.819L1297.53,947.275Z" style="fill:rgb(247,247,247);"/>
    </g>
</svg>
