<?xml version="1.0" encoding="UTF-8" standalone="no"?>
<!DOCTYPE svg PUBLIC "-//W3C//DTD SVG 1.1//EN" "http://www.w3.org/Graphics/SVG/1.1/DTD/svg11.dtd">
<svg width="100%" height="100%" viewBox="0 0 446 446" version="1.1" xmlns="http://www.w3.org/2000/svg" xmlns:xlink="http://www.w3.org/1999/xlink" xml:space="preserve" xmlns:serif="http://www.serif.com/" style="fill-rule:evenodd;clip-rule:evenodd;stroke-linejoin:round;stroke-miterlimit:2;">
    <g transform="matrix(1,0,0,1,-1659.84,-734.516)">
        <path d="M2105.17,734.516L1659.84,734.516L1659.84,1179.85L2105.17,1179.85L2105.17,734.516ZM1859.59,1102.3C1735.76,1087.95 1732.81,957.706 1732.81,957.706L1778.63,956.656C1778.63,956.656 1780.99,1057.75 1882.51,1057.75C1984.02,1057.75 1986.38,956.656 1986.38,956.656L2032.2,957.706C2032.2,957.706 2029.25,1087.95 1905.42,1102.3L1905.42,1137.49L1859.59,1137.49L1859.59,1102.3ZM1961.67,957.181L1961.67,867.024C1961.67,823.331 1926.2,787.858 1882.51,787.858C1838.81,787.858 1803.34,823.331 1803.34,867.024L1803.34,957.181C1803.34,1000.87 1838.81,1036.35 1882.51,1036.35C1926.2,1036.35 1961.67,1000.87 1961.67,957.181Z" style="fill:rgb(247,247,247);"/>
    </g>
</svg>
