<?xml version="1.0"?>
<svg xmlns="http://www.w3.org/2000/svg" viewBox="0 0 50 50">
    <path style="line-height:normal;text-indent:0;text-align:start;text-decoration-line:none;text-decoration-style:solid;text-decoration-color:#000;text-transform:none;block-progression:tb;isolation:auto;mix-blend-mode:normal" d="M 4 8 L 4 30.792969 A 1.0001 1.0001 0 0 0 4 31.265625 L 4 42 L 26 42 A 1.0001 1.0001 0 1 0 26 40 L 6 40 L 6 31.4375 L 17.941406 20.414062 L 27.617188 30.96875 L 25.292969 33.292969 A 1.0001 1.0001 0 1 0 26.707031 34.707031 L 29.517578 31.896484 A 1.0001 1.0001 0 0 0 29.894531 31.519531 L 34 27.414062 L 37.292969 30.707031 A 1.0001 1.0001 0 1 0 38.707031 29.292969 L 34.707031 25.292969 A 1.0001 1.0001 0 0 0 33.984375 25 A 1.0001 1.0001 0 0 0 33.292969 25.292969 L 29.03125 29.554688 L 18.736328 18.324219 A 1.0001 1.0001 0 0 0 18.029297 18 A 1.0001 1.0001 0 0 0 17.322266 18.265625 L 6 28.716797 L 6 10 L 44 10 L 44 27 A 1.0001 1.0001 0 1 0 46 27 L 46 8 L 4 8 z M 35 15 A 3 3 0 0 0 32 18 A 3 3 0 0 0 35 21 A 3 3 0 0 0 38 18 A 3 3 0 0 0 35 15 z M 44 33 A 2 2 0 0 0 42.271484 34 L 32 34 A 1.0001 1.0001 0 1 0 32 36 L 42.269531 36 A 2 2 0 0 0 44 37 A 2 2 0 0 0 45.728516 36 L 49 36 A 1.0001 1.0001 0 1 0 49 34 L 45.730469 34 A 2 2 0 0 0 44 33 z M 38 39 A 2 2 0 0 0 36.271484 40 L 32 40 A 1.0001 1.0001 0 1 0 32 42 L 36.269531 42 A 2 2 0 0 0 38 43 A 2 2 0 0 0 39.728516 42 L 49 42 A 1.0001 1.0001 0 1 0 49 40 L 39.730469 40 A 2 2 0 0 0 38 39 z M 44 45 A 2 2 0 0 0 42.269531 46 L 32 46 A 1.0001 1.0001 0 1 0 32 48 L 42.271484 48 A 2 2 0 0 0 44 49 A 2 2 0 0 0 45.730469 48 L 49 48 A 1.0001 1.0001 0 1 0 49 46 L 45.728516 46 A 2 2 0 0 0 44 45 z"/>
</svg>
