<?xml version="1.0"?>
<svg xmlns="http://www.w3.org/2000/svg" viewBox="0 0 80 80">
    <path d="M 11 15 L 11 18 L 6 18 L 6 67 L 35.505859 67 C 36.284666 68.745175 37.971465 70 40 70 C 42.028851 70 43.715042 68.74513 44.494141 67 L 74 67 L 74 18 L 69 18 L 69 15 L 43 15 C 41.789062 15 40.735556 15.576246 40 16.435547 C 39.264444 15.576246 38.210938 15 37 15 L 11 15 z M 13 17 L 37 17 C 38.116666 17 39 17.883334 39 19 L 41 19 C 41 17.883334 41.883334 17 43 17 L 67 17 L 67 60 L 43 60 C 41.789062 60 40.735556 60.576246 40 61.435547 C 39.264444 60.576246 38.210938 60 37 60 L 13 60 L 13 17 z M 8 20 L 11 20 L 11 62 L 37 62 C 38.116666 62 39 62.883334 39 64 L 41 64 C 41 62.883334 41.883334 62 43 62 L 69 62 L 69 20 L 72 20 L 72 65 L 43.085938 65 L 42.890625 65.748047 C 42.554647 67.042353 41.404427 68 40 68 C 38.595573 68 37.444396 67.043513 37.109375 65.75 L 36.914062 65 L 8 65 L 8 20 z M 40 21 A 1 1 0 0 0 39 22 A 1 1 0 0 0 40 23 A 1 1 0 0 0 41 22 A 1 1 0 0 0 40 21 z M 40 25 A 1 1 0 0 0 39 26 A 1 1 0 0 0 40 27 A 1 1 0 0 0 41 26 A 1 1 0 0 0 40 25 z M 55 25 A 3 3 0 0 0 52 28 A 3 3 0 0 0 55 31 A 3 3 0 0 0 58 28 A 3 3 0 0 0 55 25 z M 40 29 A 1 1 0 0 0 39 30 A 1 1 0 0 0 40 31 A 1 1 0 0 0 41 30 A 1 1 0 0 0 40 29 z M 40 33 A 1 1 0 0 0 39 34 A 1 1 0 0 0 40 35 A 1 1 0 0 0 41 34 A 1 1 0 0 0 40 33 z M 52 35 L 52 37 L 53 37 L 53 49 L 52 49 L 52 51 L 53 51 L 57 51 L 58 51 L 58 49 L 57 49 L 57 35 L 56 35 L 52 35 z M 40 37 A 1 1 0 0 0 39 38 A 1 1 0 0 0 40 39 A 1 1 0 0 0 41 38 A 1 1 0 0 0 40 37 z M 40 41 A 1 1 0 0 0 39 42 A 1 1 0 0 0 40 43 A 1 1 0 0 0 41 42 A 1 1 0 0 0 40 41 z M 40 45 A 1 1 0 0 0 39 46 A 1 1 0 0 0 40 47 A 1 1 0 0 0 41 46 A 1 1 0 0 0 40 45 z M 40 49 A 1 1 0 0 0 39 50 A 1 1 0 0 0 40 51 A 1 1 0 0 0 41 50 A 1 1 0 0 0 40 49 z M 40 53 A 1 1 0 0 0 39 54 A 1 1 0 0 0 40 55 A 1 1 0 0 0 41 54 A 1 1 0 0 0 40 53 z M 40 57 A 1 1 0 0 0 39 58 A 1 1 0 0 0 40 59 A 1 1 0 0 0 41 58 A 1 1 0 0 0 40 57 z"/>
</svg>
