<?xml version="1.0"?>
<svg xmlns="http://www.w3.org/2000/svg" viewBox="0 0 80 80">
    <path style="line-height:normal;text-indent:0;text-align:start;text-decoration-line:none;text-decoration-style:solid;text-decoration-color:#000;text-transform:none;block-progression:tb;isolation:auto;mix-blend-mode:normal" d="M 38.726562 9 C 33.88554 9 29.535633 11.649371 26.378906 14.224609 C 23.222179 16.799848 21.210937 19.384766 21.210938 19.384766 L 20.308594 20.542969 L 21.716797 20.958984 C 21.716797 20.958984 22.266975 21.109198 22.919922 21.779297 C 23.572869 22.449395 24.273437 23.588075 24.273438 25.751953 C 24.273438 28.54825 24.699323 30.803696 24.914062 31.763672 C 24.355077 32.274799 24 32.996866 24 33.800781 C 24 34.358781 24.212969 35.072625 24.417969 35.765625 C 24.500969 36.043625 24.612 36.424 24.625 36.5 C 24.625 37.822 25.682625 38.907141 27.015625 38.994141 C 27.200056 42.864591 29.089103 46.328637 32 48.601562 L 32 52.253906 C 30.585188 52.680577 27.148728 53.782038 23.572266 55.470703 C 17.220266 58.470703 14 61.677 14 65 L 14 71 L 59 71 L 57 69 L 16 69 L 16 65 C 16 60.268051 26.600473 56.022351 32 54.351562 L 32 56.236328 L 32.105469 56.447266 C 32.199469 56.633266 34.446 61 40 61 C 43.099 61 45.16625 59.64125 46.40625 58.40625 L 44.990234 56.990234 C 44.031234 57.936234 42.418 59 40 59 C 36.244 59 34.438 56.462281 34 55.738281 L 34 49.886719 C 35.064534 50.439416 36.214959 50.858826 37.439453 51.103516 C 38.174453 51.683516 39.072 52 40 52 C 40.928 52 41.825547 51.683516 42.560547 51.103516 C 43.098547 50.995516 43.618906 50.845781 44.128906 50.675781 L 43.410156 48.808594 C 42.934156 48.963594 42.447406 49.0975 41.941406 49.1875 L 41.65625 49.238281 L 41.443359 49.431641 C 40.634359 50.165641 39.363688 50.165641 38.554688 49.431641 L 38.341797 49.238281 L 38.056641 49.1875 C 32.809641 48.2505 29 43.699187 29 38.367188 L 29 37 L 27.1875 37 C 26.8775 37 26.625 36.775 26.625 36.5 C 26.625 36.188 26.525938 35.839313 26.335938 35.195312 C 26.209937 34.773313 26 34.067781 26 33.800781 C 26 33.401781 26.321234 33.068766 26.740234 33.009766 C 26.851234 33.062766 27.076141 33.178828 27.494141 33.423828 L 29 34.306641 L 29 31.052734 C 29 26.129734 34.298 24 37 24 C 42.653 24 45.939297 22.056156 47.154297 21.160156 C 48.276297 21.734156 51 23.585 51 28 L 51 34.306641 L 52.505859 33.423828 C 52.923859 33.178828 53.149766 33.062766 53.259766 33.009766 C 53.678766 33.067766 54 33.400781 54 33.800781 C 54 34.068781 53.790063 34.773312 53.664062 35.195312 C 53.474063 35.839312 53.375 36.189953 53.375 36.501953 C 53.375 36.776953 53.1235 37.001953 52.8125 37.001953 L 51 37.001953 L 51 38.369141 C 51 40.301141 50.494422 42.12675 49.607422 43.71875 L 51.488281 44.441406 C 52.359281 42.794406 52.891375 40.947141 52.984375 38.994141 C 54.317375 38.907141 55.375047 37.824969 55.373047 36.542969 C 55.387047 36.425969 55.500031 36.043625 55.582031 35.765625 C 55.788031 35.071625 56 34.357781 56 33.800781 C 56 32.984575 55.632589 32.254431 55.058594 31.742188 C 55.243722 30.681269 56 26.173364 56 23 C 56 19.407364 54.65612 16.831503 52.841797 15.236328 C 51.214855 13.8059 49.299035 13.229012 47.603516 13.107422 C 47.331339 12.67697 46.848064 11.996623 45.841797 11.210938 C 44.404272 10.088527 42.089138 9 38.726562 9 z M 38.726562 11 C 41.66599 11 43.487353 11.911471 44.611328 12.789062 C 45.735303 13.666654 46.103516 14.441406 46.103516 14.441406 L 46.378906 15 L 47 15 C 48.332508 15 50.123557 15.509207 51.521484 16.738281 C 52.919411 17.967356 54 19.889636 54 23 C 54 25.790852 53.334261 29.861149 53.142578 31.001953 C 53.136555 31.001917 53.131032 31 53.125 31 C 53.083 31 53.042 31.001859 53 31.005859 L 53 28 C 53 22.437 49.283359 19.713734 47.318359 19.052734 L 46.744141 18.859375 L 46.308594 19.279297 C 46.280594 19.306297 43.395 22 37 22 C 33.521 22 27.032 24.642859 27 31.005859 C 26.958 31.001859 26.917 31 26.875 31 C 26.850873 31 26.828674 31.007234 26.804688 31.007812 C 26.60088 30.041314 26.273437 28.158882 26.273438 25.751953 C 26.273438 23.131832 25.337568 21.394667 24.353516 20.384766 C 23.938597 19.958948 23.842511 20.029311 23.480469 19.818359 C 24.170718 19.004045 25.455427 17.561248 27.644531 15.775391 C 30.616804 13.350629 34.631585 11 38.726562 11 z M 34.5 33 A 1.5 1.5 0 0 0 33 34.5 A 1.5 1.5 0 0 0 34.5 36 A 1.5 1.5 0 0 0 36 34.5 A 1.5 1.5 0 0 0 34.5 33 z M 45.5 33 A 1.5 1.5 0 0 0 44 34.5 A 1.5 1.5 0 0 0 45.5 36 A 1.5 1.5 0 0 0 47 34.5 A 1.5 1.5 0 0 0 45.5 33 z M 45.259766 45.259766 L 50.201172 58.109375 L 50.351562 58.259766 L 64.599609 72.505859 L 64.597656 72.507812 L 65.304688 73.214844 L 70.070312 77.978516 L 70.611328 78.517578 C 72.578359 80.484609 75.798594 80.484609 77.765625 78.517578 L 78.519531 77.763672 C 80.486562 75.796641 80.486562 72.578359 78.519531 70.611328 L 77.978516 70.070312 L 72.505859 64.599609 L 58.109375 50.201172 L 45.259766 45.259766 z M 50.914062 49.578125 L 56.478516 51.71875 C 56.474495 51.740618 56.475204 51.752896 56.470703 51.775391 C 56.389333 52.182037 56.203646 52.614713 56.033203 52.785156 C 55.86276 52.955599 55.428131 53.141287 55.021484 53.222656 C 54.614838 53.304026 54.304687 53.304688 54.304688 53.304688 L 53.304688 53.304688 L 53.304688 54.304688 C 53.304688 54.304688 53.304024 54.614838 53.222656 55.021484 C 53.141286 55.428131 52.955599 55.86276 52.785156 56.033203 C 52.614713 56.203646 52.182037 56.389334 51.775391 56.470703 C 51.752135 56.475357 51.739382 56.474375 51.716797 56.478516 L 49.578125 50.914062 L 50.914062 49.578125 z M 58.164062 53.085938 L 71.091797 66.013672 L 66.013672 71.091797 L 53.085938 58.166016 C 53.465732 58.014197 53.851794 57.79469 54.199219 57.447266 C 54.840776 56.805709 55.061963 56.021916 55.183594 55.414062 C 55.206304 55.300576 55.192091 55.310524 55.207031 55.207031 C 55.310524 55.192051 55.300571 55.206305 55.414062 55.183594 C 56.021918 55.061963 56.805709 54.840776 57.447266 54.199219 C 57.794503 53.851982 58.012248 53.465536 58.164062 53.085938 z M 20 65 A 1 1 0 0 0 19 66 A 1 1 0 0 0 20 67 A 1 1 0 0 0 21 66 A 1 1 0 0 0 20 65 z M 24 65 A 1 1 0 0 0 23 66 A 1 1 0 0 0 24 67 A 1 1 0 0 0 25 66 A 1 1 0 0 0 24 65 z M 28 65 A 1 1 0 0 0 27 66 A 1 1 0 0 0 28 67 A 1 1 0 0 0 29 66 A 1 1 0 0 0 28 65 z M 32 65 A 1 1 0 0 0 31 66 A 1 1 0 0 0 32 67 A 1 1 0 0 0 33 66 A 1 1 0 0 0 32 65 z M 36 65 A 1 1 0 0 0 35 66 A 1 1 0 0 0 36 67 A 1 1 0 0 0 37 66 A 1 1 0 0 0 36 65 z M 40 65 A 1 1 0 0 0 39 66 A 1 1 0 0 0 40 67 A 1 1 0 0 0 41 66 A 1 1 0 0 0 40 65 z M 44 65 A 1 1 0 0 0 43 66 A 1 1 0 0 0 44 67 A 1 1 0 0 0 45 66 A 1 1 0 0 0 44 65 z M 48 65 A 1 1 0 0 0 47 66 A 1 1 0 0 0 48 67 A 1 1 0 0 0 49 66 A 1 1 0 0 0 48 65 z M 52 65 A 1 1 0 0 0 51 66 A 1 1 0 0 0 52 67 A 1 1 0 0 0 53 66 A 1 1 0 0 0 52 65 z M 72.505859 67.427734 L 75.150391 70.070312 L 70.070312 75.150391 L 67.427734 72.507812 L 72.505859 67.427734 z M 76.564453 71.484375 L 77.105469 72.025391 C 78.308438 73.22836 78.308438 75.14664 77.105469 76.349609 L 76.351562 77.103516 C 75.148595 78.306485 73.22836 78.306485 72.025391 77.103516 L 71.484375 76.564453 L 76.564453 71.484375 z"/>
</svg>
