<?xml version="1.0" encoding="UTF-8" standalone="no"?>
<!DOCTYPE svg PUBLIC "-//W3C//DTD SVG 1.1//EN" "http://www.w3.org/Graphics/SVG/1.1/DTD/svg11.dtd">
<svg width="100%" height="100%" viewBox="0 0 561 561" version="1.1" xmlns="http://www.w3.org/2000/svg" xmlns:xlink="http://www.w3.org/1999/xlink" xml:space="preserve" xmlns:serif="http://www.serif.com/" style="fill-rule:evenodd;clip-rule:evenodd;stroke-linejoin:round;stroke-miterlimit:2;">
    <g transform="matrix(1,0,0,1,-2131.39,-667.082)">
        <g transform="matrix(1,0,0,1,23.2678,0)">
            <path d="M2605.29,770.061C2644.8,818.354 2668.51,880.067 2668.51,947.275C2668.51,1101.92 2542.96,1227.47 2388.32,1227.47C2321.39,1227.47 2259.91,1203.95 2211.69,1164.73L2298.6,1077.58C2315.62,1089.86 2337.46,1099.05 2365.51,1102.3L2365.51,1137.49L2411.34,1137.49L2411.34,1102.3C2535.17,1087.95 2538.12,957.706 2538.12,957.706L2492.3,956.656C2492.3,956.656 2489.94,1057.75 2388.42,1057.75C2364.72,1057.75 2346.42,1052.24 2332.3,1043.79L2349.77,1026.27C2361.2,1032.69 2374.39,1036.35 2388.42,1036.35C2432.12,1036.35 2467.59,1000.87 2467.59,957.181L2467.59,908.135L2605.29,770.061ZM2180.11,1134.69C2135.37,1085.03 2108.13,1019.31 2108.13,947.275C2108.13,792.632 2233.68,667.082 2388.32,667.082C2460.68,667.082 2526.66,694.569 2576.4,739.661L2180.11,1134.69ZM2248.75,1007.59C2239.24,980.236 2238.73,957.706 2238.73,957.706L2284.55,956.656C2284.55,956.656 2284.68,962.045 2286.12,970.338L2248.75,1007.59ZM2309.26,947.275L2309.26,867.024C2309.26,823.331 2344.73,787.858 2388.42,787.858C2410.65,787.858 2430.76,797.041 2445.14,811.819L2309.26,947.275Z" style="fill:rgb(247,247,247);"/>
        </g>
    </g>
</svg>
