<?xml version="1.0" encoding="UTF-8" standalone="no"?>
<!DOCTYPE svg PUBLIC "-//W3C//DTD SVG 1.1//EN" "http://www.w3.org/Graphics/SVG/1.1/DTD/svg11.dtd">
<svg width="100%" height="100%" viewBox="0 0 561 561" version="1.1" xmlns="http://www.w3.org/2000/svg" xmlns:xlink="http://www.w3.org/1999/xlink" xml:space="preserve" xmlns:serif="http://www.serif.com/" style="fill-rule:evenodd;clip-rule:evenodd;stroke-linejoin:round;stroke-miterlimit:2;">
    <g transform="matrix(1,0,0,1,-2718,-667.082)">
        <g transform="matrix(1,0,0,1,103.959,0)">
            <path d="M3174.43,947.275C3174.43,792.632 3048.88,667.082 2894.24,667.082C2739.59,667.082 2614.04,792.632 2614.04,947.275C2614.04,1101.92 2739.59,1227.47 2894.24,1227.47C3048.88,1227.47 3174.43,1101.92 3174.43,947.275ZM2871.32,1102.3C2747.49,1087.95 2744.54,957.706 2744.54,957.706L2790.36,956.656C2790.36,956.656 2792.72,1057.75 2894.24,1057.75C2995.75,1057.75 2998.11,956.656 2998.11,956.656L3043.93,957.706C3043.93,957.706 3040.98,1087.95 2917.15,1102.3L2917.15,1137.49L2871.32,1137.49L2871.32,1102.3ZM2973.4,957.181L2973.4,867.024C2973.4,823.331 2937.93,787.858 2894.24,787.858C2850.54,787.858 2815.07,823.331 2815.07,867.024L2815.07,957.181C2815.07,1000.87 2850.54,1036.35 2894.24,1036.35C2937.93,1036.35 2973.4,1000.87 2973.4,957.181Z" style="fill:rgb(247,247,247);"/>
        </g>
    </g>
</svg>
